HIERARCHY
ROOT Elbow
{
	OFFSET	0.00	0.00	0.00
	CHANNELS 6 Xposition Yposition Zposition Zrotation Xrotation Yrotation
	JOINT L_Wrist
	{
		OFFSET	 0.208349	 0.000000	 0.000000
		CHANNELS 3 Zrotation Xrotation Yrotation
		JOINT L_index_Proximal
		{
			OFFSET	 0.093499	 0.010637	-0.002084
			CHANNELS 3 Zrotation Xrotation Yrotation
			JOINT L_index_b
			{
				OFFSET	 0.033152	 0.000000	 0.000000
				CHANNELS 3 Zrotation Xrotation Yrotation
				JOINT L_index_c
				{
					OFFSET	 0.018651	 0.000000	 0.000000
					CHANNELS 3 Zrotation Xrotation Yrotation
					End Site
					{
						OFFSET	 0.018651	 0.000000	 0.000000
					}
				}
			}
		}
		JOINT L_middle_Proximal
		{
			OFFSET	 0.090632	-0.006115	-0.003750
			CHANNELS 3 Zrotation Xrotation Yrotation
			JOINT L_middle_b
			{
				OFFSET	 0.037194	 0.000000	 0.000000
				CHANNELS 3 Zrotation Xrotation Yrotation
				JOINT L_middle_c
				{
					OFFSET	 0.021943	 0.000000	 0.000000
					CHANNELS 3 Zrotation Xrotation Yrotation
					End Site
					{
						OFFSET	 0.021943	 0.000000	 0.000000
					}
				}
			}
		}
		JOINT L_pinky_Proximal
		{
			OFFSET	 0.074015	-0.035449	-0.000417
			CHANNELS 3 Zrotation Xrotation Yrotation
			JOINT L_pinky_b
			{
				OFFSET	 0.027285	 0.000000	 0.000000
				CHANNELS 3 Zrotation Xrotation Yrotation
				JOINT L_pinky_c
				{
					OFFSET	 0.015093	 0.000000	 0.000000
					CHANNELS 3 Zrotation Xrotation Yrotation
					End Site
					{
						OFFSET	 0.015093	 0.000000	 0.000000
					}
				}
			}
		}
		JOINT L_ring_Proximal
		{
			OFFSET	 0.082801	-0.021859	-0.003750
			CHANNELS 3 Zrotation Xrotation Yrotation
			JOINT L_ring_b
			{
				OFFSET	 0.034478	 0.000000	 0.000000
				CHANNELS 3 Zrotation Xrotation Yrotation
				JOINT L_ring_c
				{
					OFFSET	 0.021377	 0.000000	 0.000000
					CHANNELS 3 Zrotation Xrotation Yrotation
					End Site
					{
						OFFSET	 0.021377	 0.000000	 0.000000
					}
				}
			}
		}
		JOINT L_thumb_Proximal
		{
			OFFSET	 0.030306	 0.018528	 0.004584
			CHANNELS 3 Zrotation Xrotation Yrotation
			JOINT L_thumb_a
			{
				OFFSET	 0.038520	 0.000000	 0.000000
				CHANNELS 3 Zrotation Xrotation Yrotation
				JOINT L_thumb_b
				{
					OFFSET	 0.026310	 0.000000	 0.000000
					CHANNELS 3 Zrotation Xrotation Yrotation
					End Site
					{
						OFFSET	 0.026310	 0.000000	 0.000000
					}
				}
			}
		}
	}
}
MOTION
Frames:    7
Frame Time: 0.01666667
-0.163384	-0.284554	 0.711584	 38.286160	 47.678080	-153.586200	 17.900450	 3.861934	 22.509940	 2.821264	-1.601161	-45.269990	-1.030186	 0.439413	-46.199390	-3.494222	 0.817271	-26.321290	-7.348814	-9.734591	-48.183130	 1.861848	-0.894700	-51.329300	-0.174187	 0.058310	-37.014210	-30.046740	-17.960840	-61.355270	-2.589555	 1.738537	-67.747180	 1.918137	-0.947144	-52.555210	-20.326990	-10.160970	-71.790190	-1.740813	 1.504193	-81.658190	 1.526928	-0.584771	-41.909210	 65.218350	 42.237000	-67.069900	 3.501760	-0.263631	-8.608140	-1.280074	 0.209967	-18.629930
-0.163229	-0.284737	 0.711642	 38.154820	 47.623830	-153.578700	 17.880980	 3.877724	 22.607390	 2.817568	-1.598086	-45.235550	-1.034037	 0.441331	-46.225250	-3.497753	 0.818530	-26.334830	-7.339903	-9.741108	-48.254320	 1.838001	-0.883916	-51.363880	-0.232815	 0.077870	-36.989070	-30.023510	-17.975890	-61.350280	-2.597197	 1.743478	-67.741330	 1.918582	-0.945814	-52.481850	-20.335050	-10.154440	-71.781920	-1.722574	 1.487234	-81.612220	 1.528813	-0.585054	-41.880170	 65.179140	 42.251680	-67.090320	 3.527844	-0.263531	-8.541268	-1.262537	 0.206393	-18.568850
-0.162960	-0.284967	 0.711608	 37.990010	 47.570630	-153.550200	 17.804940	 3.889873	 22.682380	 2.800105	-1.587777	-45.193310	-1.031167	 0.440079	-46.221980	-3.486530	 0.816112	-26.341380	-7.367146	-9.727338	-48.285370	 1.815573	-0.872682	-51.341120	-0.267438	 0.089301	-36.931920	-29.991250	-17.998790	-61.280160	-2.591645	 1.738999	-67.718040	 1.921740	-0.946956	-52.461060	-20.341680	-10.150460	-71.714230	-1.691152	 1.458359	-81.544540	 1.523330	-0.582374	-41.842160	 65.163680	 42.252880	-67.106870	 3.535007	-0.263585	-8.526068	-1.239145	 0.202720	-18.581950
-0.162723	-0.285033	 0.711498	 37.851010	 47.560220	-153.505900	 17.748360	 3.894342	 22.709990	 2.765474	-1.569343	-45.167220	-1.029992	 0.438721	-46.141410	-3.490781	 0.815980	-26.306250	-7.390892	-9.715192	-48.307880	 1.819923	-0.873299	-51.265870	-0.276203	 0.092099	-36.880870	-29.988000	-18.001920	-61.247410	-2.584999	 1.733576	-67.689060	 1.916924	-0.944557	-52.460100	-20.352440	-10.142440	-71.674160	-1.660013	 1.430217	-81.493120	 1.523180	-0.582474	-41.851840	 65.087780	 42.277630	-67.153220	 3.561219	-0.264979	-8.507674	-1.224297	 0.199505	-18.509590
-0.162393	-0.285066	 0.711374	 37.752630	 47.461090	-153.500800	 17.646880	 3.900133	 22.745750	 2.658351	-1.513329	-45.113590	-1.065283	 0.452166	-45.997280	-3.630937	 0.845520	-26.209180	-7.435102	-9.693243	-48.378510	 1.746197	-0.835585	-51.141040	-0.355148	 0.118205	-36.818050	-29.975040	-18.009710	-61.262180	-2.560030	 1.714796	-67.626430	 1.933647	-0.952888	-52.464580	-20.338230	-10.155050	-71.639690	-1.638482	 1.408455	-81.363920	 1.532412	-0.586141	-41.861720	 65.001950	 42.286930	-67.240460	 3.556401	-0.265223	-8.527304	-1.278878	 0.207155	-18.401540
-0.162249	-0.285125	 0.711295	 37.730560	 47.372570	-153.507600	 17.603100	 3.903554	 22.766870	 2.614527	-1.490484	-45.092620	-1.068945	 0.452909	-45.923800	-3.645316	 0.848551	-26.199530	-7.450115	-9.686635	-48.438390	 1.705399	-0.815956	-51.135670	-0.382365	 0.127201	-36.800240	-29.969320	-18.012300	-61.295170	-2.546203	 1.704579	-67.596630	 1.942865	-0.957333	-52.459470	-20.328180	-10.163640	-71.629140	-1.627531	 1.396960	-81.279340	 1.537510	-0.588639	-41.896840	 64.958980	 42.302470	-67.263950	 3.544123	-0.263455	-8.499717	-1.306119	 0.210921	-18.346210
-0.161913	-0.285191	 0.711205	 37.683400	 47.278220	-153.518000	 17.565330	 3.905857	 22.781130	 2.589795	-1.475841	-45.026150	-1.000562	 0.422922	-45.825760	-3.601291	 0.836062	-26.132250	-7.462462	-9.679976	-48.436820	 1.727521	-0.825034	-51.054410	-0.378665	 0.125479	-36.667040	-29.979730	-18.004790	-61.322130	-2.543025	 1.701144	-67.555890	 1.934957	-0.953087	-52.442610	-20.323820	-10.167610	-71.613510	-1.592170	 1.364926	-81.210210	 1.550666	-0.593334	-41.874740	 64.865740	 42.340160	-67.307540	 3.536981	-0.262793	-8.495709	-1.318609	 0.211874	-18.254920
